<svg width="42" height="28" viewBox="0 0 42 28" fill="none" xmlns="http://www.w3.org/2000/svg">
<path d="M15.7934 17.2832H5.09759C4.65319 17.2832 4.29541 17.641 4.29541 18.0854C4.29541 18.5336 4.65319 18.8913 5.09759 18.8913H15.7934C16.2378 18.8913 16.5955 18.5336 16.5955 18.0892C16.5955 17.641 16.2378 17.2832 15.7934 17.2832Z" fill="#00BCB4"/>
<path d="M17.274 14.2478H6.57818C6.13378 14.2478 5.776 14.6056 5.776 15.05C5.776 15.4982 6.13378 15.8559 6.57818 15.8559H17.274C17.7184 15.8559 18.0761 15.4982 18.0761 15.0538C18.0761 14.6056 17.7184 14.2478 17.274 14.2478Z" fill="#00BCB4"/>
<path d="M13.8315 11.2163H3.13568C2.69128 11.2163 2.3335 11.5741 2.3335 12.0185C2.3335 12.4667 2.69128 12.8244 3.13568 12.8244H13.8315C14.2759 12.8244 14.6336 12.4667 14.6336 12.0223C14.6336 11.5741 14.2759 11.2163 13.8315 11.2163Z" fill="#00BCB4"/>
<path d="M31.9091 10.7263V10.7339C31.9091 10.7339 31.9354 10.7263 31.9505 10.7263H31.9091Z" stroke="#0A0908" stroke-width="0.169475" stroke-miterlimit="10"/>
<path d="M31.9093 10.7339L31.4762 12.7374C31.3707 13.2346 31.7473 13.7016 32.2557 13.7016H35.0351L34.4815 10.7263H31.9545C31.9545 10.7263 31.9281 10.7301 31.913 10.7339H31.9093Z" fill="#C5EAE8"/>
<path d="M26.6819 21.4599L29.7739 6.72682C29.9961 5.66101 29.1863 4.66675 28.0979 4.66675H14.3102C12.928 4.66675 11.7379 5.63464 11.4555 6.98668L8.48777 21.1398C8.45387 21.3093 8.58192 21.4637 8.7514 21.4637H26.6819V21.4599Z" fill="#00BCB4"/>
<path d="M26.6814 21.46L27.22 18.8877H8.80745C8.47603 18.8877 8.1898 19.1174 8.11825 19.4413L7.86592 20.6051C7.77176 21.0457 8.10318 21.46 8.55512 21.46H26.6777H26.6814Z" fill="#009791"/>
<path d="M13.9597 24.0247C15.7298 24.0247 17.1647 22.5898 17.1647 20.8197C17.1647 19.0496 15.7298 17.6147 13.9597 17.6147C12.1897 17.6147 10.7548 19.0496 10.7548 20.8197C10.7548 22.5898 12.1897 24.0247 13.9597 24.0247Z" fill="#5B5B5B"/>
<path d="M13.9598 22.4729C14.8712 22.4729 15.6132 21.7348 15.6132 20.8196C15.6132 19.9044 14.875 19.1663 13.9598 19.1663C13.0447 19.1663 12.3065 19.9044 12.3065 20.8196C12.3065 21.7348 13.0447 22.4729 13.9598 22.4729Z" fill="#CEF3F1"/>
<path d="M33.7471 10.7263V10.7339C33.7471 10.7339 33.7734 10.7263 33.7885 10.7263H33.7471Z" stroke="#0A0908" stroke-width="0.169475" stroke-miterlimit="10"/>
<path d="M38.477 16.1837C38.6163 15.5209 38.1117 14.8995 37.4338 14.8995H32.873C32.342 14.8995 31.9503 14.4137 32.0595 13.8939L32.5002 11.7736C32.6244 11.1785 33.1404 10.7567 33.743 10.7379V10.7304H36.3115V9.35574C36.3115 8.96406 35.9951 8.64771 35.6034 8.64771H31.2423L28.9864 19.4151C28.8809 19.9235 29.2688 20.4056 29.7886 20.4056H37.5882C37.5882 20.4056 37.5882 20.3943 37.5919 20.3905L38.4694 16.1875L38.477 16.1837Z" fill="#FFDA15"/>
<path fill-rule="evenodd" clip-rule="evenodd" d="M33.7465 10.7337C33.7465 10.7337 33.754 10.7337 33.7615 10.7337C33.7691 10.7337 33.7804 10.73 33.7879 10.73H36.315L36.8686 13.7052H34.0892C33.9611 13.7052 33.8406 13.6751 33.7352 13.6224C33.8406 13.6751 33.9649 13.7052 34.093 13.7052H36.8723L37.4335 14.8953H32.8727C32.3417 14.8953 31.95 14.4095 32.0593 13.8898L32.4999 11.7694C32.6242 11.1782 33.1401 10.7526 33.7389 10.7337H33.7465Z" fill="#CEF3F1"/>
<path d="M28.9901 19.4112L31.2461 8.6438H29.363L26.6815 21.4599H36.2738C36.9065 21.4599 37.4564 21.0193 37.592 20.4017H29.7923C29.2726 20.4017 28.8809 19.9234 28.9901 19.4112Z" fill="#FFC815"/>
<path d="M33.2199 24.0247C34.9899 24.0247 36.4248 22.5898 36.4248 20.8197C36.4248 19.0496 34.9899 17.6147 33.2199 17.6147C31.4498 17.6147 30.0149 19.0496 30.0149 20.8197C30.0149 22.5898 31.4498 24.0247 33.2199 24.0247Z" fill="#5B5B5B"/>
<path d="M33.2197 22.4729C34.1311 22.4729 34.8731 21.7348 34.8731 20.8196C34.8731 19.9044 34.1349 19.1663 33.2197 19.1663C32.3046 19.1663 31.5664 19.9044 31.5664 20.8196C31.5664 21.7348 32.3046 22.4729 33.2197 22.4729Z" fill="#CEF3F1"/>
<path d="M12.235 14.2213C12.2011 14.2213 12.1822 14.195 12.1898 14.1573L13.1162 9.95807C13.1238 9.92041 13.1577 9.89404 13.1878 9.89404H15.8316C15.8693 9.89404 15.8919 9.92041 15.8806 9.95807L15.7035 10.7565C15.696 10.7941 15.6621 10.8205 15.6245 10.8205H14.0766C14.0578 10.8205 14.0427 10.8318 14.0352 10.8582L13.8393 11.747C13.8356 11.7658 13.8431 11.7846 13.8619 11.7846H15.2441C15.2817 11.7846 15.3043 11.811 15.2968 11.8411L15.1198 12.6471C15.1123 12.6847 15.0784 12.7111 15.0407 12.7111H13.6585C13.6397 12.7111 13.6246 12.7224 13.6171 12.7488L13.3045 14.1573C13.297 14.195 13.2631 14.2213 13.2254 14.2213H12.2274H12.235Z" fill="white"/>
<path d="M15.6883 14.2213C15.6544 14.2213 15.6356 14.195 15.6431 14.1573L16.5696 9.95807C16.5771 9.92041 16.611 9.89404 16.6411 9.89404H18.2493C19.2737 9.89404 19.767 10.4401 19.5712 11.3289C19.4281 11.9842 19.0515 12.4399 18.5016 12.6734L18.9724 14.146C18.9874 14.1912 18.9535 14.2251 18.9159 14.2251H17.722C17.6881 14.2251 17.6731 14.2138 17.6655 14.1799L17.3492 12.9069C17.3416 12.8731 17.319 12.8618 17.2889 12.8618H17.0667C17.0404 12.8618 17.0328 12.8731 17.0253 12.8994L16.7466 14.1611C16.7391 14.1987 16.7052 14.2251 16.6675 14.2251H15.677L15.6883 14.2213ZM17.6768 11.9428C18.0647 11.9428 18.3284 11.7545 18.415 11.3628C18.5016 10.9712 18.2568 10.8544 17.9292 10.8544H17.5224C17.4961 10.8544 17.4885 10.8657 17.481 10.8921L17.2588 11.9014C17.2513 11.9278 17.2588 11.9391 17.2814 11.9391H17.6768V11.9428Z" fill="white"/>
<path d="M19.639 14.2213C19.6014 14.2213 19.5788 14.195 19.5901 14.1573L20.5165 9.95807C20.5241 9.92041 20.558 9.89404 20.5956 9.89404H23.2997C23.3374 9.89404 23.36 9.92041 23.3487 9.95807L23.1867 10.6962C23.1792 10.7339 23.1491 10.7527 23.1076 10.7527H21.5146C21.4882 10.7527 21.4731 10.764 21.4656 10.7904L21.2924 11.57C21.2848 11.5963 21.2961 11.6076 21.3225 11.6076H22.6896C22.7273 11.6076 22.7423 11.634 22.7348 11.6717L22.5728 12.4098C22.5653 12.4437 22.5389 12.4663 22.5013 12.4663H21.1342C21.1154 12.4663 21.0928 12.4776 21.0852 12.504L20.9045 13.3137C20.9007 13.3325 20.9082 13.3514 20.9346 13.3514H22.5427C22.5804 13.3514 22.603 13.3702 22.5954 13.4078L22.4335 14.146C22.426 14.1837 22.3921 14.21 22.3544 14.21H19.639V14.2213Z" fill="white"/>
<path d="M23.3182 14.2213C23.2806 14.2213 23.258 14.195 23.2693 14.1573L24.1957 9.95807C24.2033 9.92041 24.2372 9.89404 24.2748 9.89404H26.9789C27.0166 9.89404 27.0392 9.92041 27.0279 9.95807L26.8659 10.6962C26.8584 10.7339 26.8283 10.7527 26.7868 10.7527H25.1938C25.1674 10.7527 25.1523 10.764 25.1448 10.7904L24.9716 11.57C24.964 11.5963 24.9753 11.6076 25.0017 11.6076H26.3688C26.4065 11.6076 26.4215 11.634 26.414 11.6717L26.252 12.4098C26.2445 12.4437 26.2181 12.4663 26.1805 12.4663H24.8134C24.7946 12.4663 24.772 12.4776 24.7644 12.504L24.5837 13.3137C24.5799 13.3325 24.5874 13.3514 24.6138 13.3514H26.2219C26.2596 13.3514 26.2822 13.3702 26.2746 13.4078L26.1127 14.146C26.1052 14.1837 26.0713 14.21 26.0336 14.21H23.3182V14.2213Z" fill="white"/>
</svg>
